<svg xmlns="http://www.w3.org/2000/svg" xmlns:xlink="http://www.w3.org/1999/xlink" version="1.1" x="0px" y="0px" width="100px" height="100px" viewBox="0 0 100 100" enable-background="new 0 0 100 100" xml:space="preserve">
<g id="Captions">
</g>
<g id="Your_Icon">
	<path fill-rule="evenodd" clip-rule="evenodd" d="M50.002,0C22.449,0,0.089,22.401,0.089,50c0,27.596,22.36,50,49.913,50   s49.909-22.404,49.909-50C99.911,22.401,77.555,0,50.002,0z M94,57.478c0,1.376-0.996,2.478-2.439,2.52L8.481,60   C7.004,60,6,58.882,6,57.478V42.949c0-0.027,0-0.057,0-0.081C6,41.431,6.929,40,8.438,40h83.33C93.246,40,94,41.461,94,42.868   c0,0.024,0,0.054,0,0.081V57.478z"/>
</g>
</svg>