<svg xmlns="http://www.w3.org/2000/svg" xmlns:xlink="http://www.w3.org/1999/xlink" version="1.1" id="Layer_1" x="0px" y="0px" width="100px" height="100px" viewBox="0 0 100 100" enable-background="new 0 0 100 100" xml:space="preserve">
<g>
	<path fill="#000000" d="M85.445,14.778c-0.037-0.041-0.048-0.094-0.088-0.134c-0.039-0.04-0.096-0.052-0.135-0.09   C76.178,5.568,63.729,0.001,50.002,0.001C22.431,0.001,0,22.43,0,50.001C0,63.736,5.572,76.193,14.57,85.236   c0.033,0.039,0.044,0.084,0.078,0.119c0.034,0.033,0.08,0.045,0.115,0.078c9.047,8.992,21.502,14.564,35.239,14.564   c27.569,0,49.998-22.43,49.998-49.997C100,36.271,94.435,23.823,85.445,14.778z M50.002,5.771c11.158,0,21.333,4.185,29.125,11.026   L16.798,79.123C9.956,71.338,5.77,61.156,5.77,50.001C5.77,25.612,25.612,5.771,50.002,5.771z M50.002,94.229   c-11.158,0-21.334-4.188-29.125-11.025l62.329-62.328c6.839,7.791,11.025,17.967,11.025,29.126   C94.231,74.391,74.389,94.229,50.002,94.229z"/>
</g>
</svg>